<?xml version="1.0" encoding="utf-8"?>
<!-- Generator: Adobe Illustrator 28.3.0, SVG Export Plug-In . SVG Version: 6.00 Build 0)  -->
<svg version="1.1" xmlns="http://www.w3.org/2000/svg" xmlns:xlink="http://www.w3.org/1999/xlink" x="0px" y="0px"
	 viewBox="0 0 500 500" style="enable-background:new 0 0 500 500;" xml:space="preserve">
<style type="text/css">
	.st0{display:none;}
	.st1{display:inline;}
	.st2{fill:url(#SVGID_1_);}
	.st3{fill:#C4590F;}
	.st4{fill:#FA7114;}
	.st5{fill:#FA9652;}
	.st6{opacity:0.4;fill:#ADADAD;}
	.st7{fill:#13143B;}
	.st8{fill:#DF4931;}
	.st9{fill:#F0B573;}
	.st10{fill:#91CEFF;}
	.st11{fill:#EBB46C;}
	.st12{fill:#FFCD94;}
	.st13{fill:#FCDC74;}
	.st14{fill:#1F2060;}
	.st15{fill:url(#SVGID_00000030454066796852204000000000913912204120923816_);}
</style>
<g id="BACKGROUND" class="st0">
	<g class="st1">
		<linearGradient id="SVGID_1_" gradientUnits="userSpaceOnUse" x1="462.1244" y1="478.2263" x2="7.6471" y2="-10.7493">
			<stop  offset="8.253206e-03" style="stop-color:#A028CE"/>
			<stop  offset="0.9966" style="stop-color:#18337F"/>
		</linearGradient>
		<rect x="0" class="st2" width="500" height="500"/>
	</g>
</g>
<g id="OBJECTS">
	<g>
		<g>
			<g>
				<rect x="64.63" y="181.24" class="st3" width="69.86" height="44.3"/>
				<path class="st4" d="M177.23,293.21c-2.82-9.88,1.41-29.65,7.06-38.12s-2.82-28.23-7.06-36.71c-4.24-8.47-8.47-4.24-22.59-16.94
					c-14.12-12.71-24-25.41-36.71-45.18s-48-19.76-70.59,0s-15.53,67.76-28.23,79.06S5,250.52,5,259.33
					c0,8.81,5.65,21.18,5.65,21.18c5.65,18.35,28.23,19.76,33.88,43.76c7.61,32.35-7.06,38.12-7.06,49.41s9.88,32.47,9.88,32.47
					l155.29-5.11v-71.12C185.7,317.21,180.06,303.09,177.23,293.21z M80.46,218.66c-4.68,1.17-12.88,3.51-14.05-3.51
					c0,0-1.17-15.22,5.85-22.24c7.02-7.02,16.39,8.19,19.9,15.22C95.67,215.15,85.14,217.49,80.46,218.66z M119.09,209.3
					c-4.68,1.17-12.88,3.51-14.05-3.51c0,0-1.17-15.22,5.85-22.24c7.02-7.02,16.39,8.19,19.9,15.22
					C134.3,205.79,123.77,208.13,119.09,209.3z"/>
				<g>
					<path class="st3" d="M66.68,324.27c-5.65-24-28.23-25.41-33.88-43.76c0,0-5.65-12.36-5.65-21.18s1.41-12.71,14.12-24
						c12.71-11.29,5.65-59.29,28.23-79.06c8.11-7.1,17.87-11.64,27.63-13.63c-15.62-3.56-35.3,0.97-49.78,13.63
						c-22.59,19.76-15.53,67.76-28.23,79.06C6.41,246.62,5,250.52,5,259.33s5.65,21.18,5.65,21.18
						c5.65,18.35,28.24,19.76,33.88,43.76c7.61,32.35-7.06,38.12-7.06,49.41c0,11.29,9.88,32.47,9.88,32.47l21.82-0.72
						c-1.7-3.76-9.55-21.68-9.55-31.75C59.62,362.39,74.29,356.61,66.68,324.27z"/>
				</g>
			</g>
			<path class="st5" d="M103.82,395.93c0,0-30.67-115.86-32.37-132.9s54.9-47.11,79.42-20.15l35.53,150.05L103.82,395.93z"/>
		</g>
		<path class="st6" d="M134.49,181.24v30.67c0,0-32.37,10.22-44.3,25.56c-9.36,12.03-10.22,35.78-3.41,61.34l-6.82,93.71h40.89
			l64.75-151.64c0,0-4.29-16.3-10.26-25.48c-3.37-5.19-10.6-3.11-26.58-19.48S134.49,181.24,134.49,181.24z"/>
	</g>
	<path class="st7" d="M250.26,392.93c0,0-1.08-12.99,20.57-15.15s23.81,15.15,23.81,15.15h-45.46"/>
	<path class="st8" d="M481.66,408.08H18.86c-1.92,0-3.5-1.57-3.5-3.5v-8.15c0-1.92,1.57-3.5,3.5-3.5h462.8c1.93,0,3.5,1.58,3.5,3.5
		v8.15C485.16,406.51,483.59,408.08,481.66,408.08z"/>
	<g>
		<path class="st9" d="M336.28,389.07l-0.35,0.09c-0.06-0.07-0.11-0.13-0.17-0.2c-0.34-0.07-0.67-0.12-0.98-0.15
			c0.2,0.3,0.32,0.47,0.32,0.47l-2.82,0.94c-0.01,0.15-0.03,0.3-0.02,0.48c0.07,0.71-1.1,1.18-2.41,1.42h10.93l0.45-1.35
			c-0.28-0.04-0.45-0.07-0.45-0.07S338.49,389.6,336.28,389.07z"/>
	</g>
	<g>
		<g>
			<path class="st10" d="M121.45,392.93l6.49-84.43c0,0-6.49-36.8,10.82-56.29c12.99-12.99,23.81-12.99,41.13-17.32
				c0,0-2.16,4.33,8.66,8.66c10.82,4.33,36.8,2.16,38.97-2.16c2.16-4.33-2.16-6.49-2.16-6.49s19.48,2.16,36.8,21.65
				c17.32,19.48,27.54,66.07,27.54,66.07l-29.7,9.71l-6.49-17.32l-4.33,77.94H121.45z"/>
			<path class="st11" d="M188.98,328.28c0,0-11.35,18.44-41.14,18.44C147.84,346.72,158.67,334.77,188.98,328.28z"/>
			<path class="st12" d="M234.07,381.06c3.53,0.63,6.42,1.44,8.27,2.55c2,4,6,4,10.01,4c4,0,10.01-2,10.01-2c2,0,4,2,6,8.01
				c1.27,3.8,4,2,4,0c0-4-2-8.01-2-8.01c2,2,6,10.01,6,10.01c2,4,6,2,4-2c-2-4-6-10.01-6-10.01s4,2,8.01,10.01c2,4,6,2,4-2
				c-2-4-6-10.01-6-10.01c2,2,4,4,8.01,8.01c4,4,5.7,0.26,4-2c-6-8.01-12.01-14.01-18.01-16.01c-3.18-1.06-11.4-1.65-24.51-2.96
				c-1.69-0.17-3.72-0.52-5.97-1l-10.96-3.32"/>
			<path class="st12" d="M239.35,381.75c-29.03-3.09-50.74-8.11-77.61-19.53c-1.41-0.6-2.88-1.25-3.83-2.45
				c-0.93-1.17-0.99-2.76-1.53-4.15c-5.7-14.57-14.83-32.49-17.05-42.95l31.21-12.77c1.98,12.9,8.9,34.03,11.94,47.24
				c4.44,1.58,8.88,3.15,13.32,4.73c12.33,4.38,34.84,12.1,47.49,15.46L239.35,381.75"/>
			<path class="st9" d="M361.3,363.3c-15.68-4.27-30.76-10.54-45.77-16.79c-8-3.33-15.99-6.66-23.99-9.99
				c-3.42-1.42-4.67-2.56-6.08-3.98c-0.99-0.99-2.51-7.16-2.84-8.51c-1.57-6.49-4.11-14.79-5.67-21.28l-17.2,27.57
				c2.16,6.36,4.69,12.6,7.57,18.67c0.56,1.18,1.15,2.38,2.09,3.29c1.01,0.97,2.33,1.53,3.62,2.05
				c25.55,10.3,52.94,15.02,80.09,19.67c2.07,0.36,3.19,1.91,4.37,3.65c3.15,4.62,9.11,6.22,14.55,7.49
				c0.45,0.1,0.92,0.21,1.37,0.08"/>
			<path class="st13" d="M179.9,234.88c0,0-12.72,11.58-10.78,30.97c1.42,14.19,19.86,62.42,19.86,62.42
				c-26.96,11.35-41.14,18.44-41.14,18.44s-8.21-22.17-15.61-39.72c-2.25-5.33-4.9-13.56-5.67-19.86
				C123.23,260.1,132.27,241.38,179.9,234.88z"/>
			<path class="st13" d="M226.33,235.03c0,0,18.52,17.17,27.18,79.96l-0.69,10.45l4.26,8.51l32.63-11.35
				c0,0-11.35-52.49-32.81-71.43C240.52,234.88,226.33,235.03,226.33,235.03z"/>
		</g>
		<g>
			<path class="st12" d="M181.58,239.44l9.14-43.53c0,0,6.49,28.14,34.64,30.31v16.81C225.37,243.03,200.59,252.66,181.58,239.44z"
				/>
			<path class="st12" d="M190.73,195.91c0,0,6.49,32.47,41.13,32.47c0,0,8.66-2.16,12.99-15.15c4.33-12.99,6.49-32.47,4.33-54.12
				h-41.13l-4.33,4.33C203.72,163.44,212.38,193.75,190.73,195.91z"/>
			<path class="st9" d="M190.73,195.91c0,0,4.33,25.98,34.64,32.47v8.66C225.37,237.05,192.89,234.88,190.73,195.91z"/>
			<path class="st14" d="M190.73,195.91c0,0-19.48,0-23.81-19.48c0,0,9.56,3.96,6.49-2.16c-2.16-4.33-4.33-8.66-4.33-15.15
				s-2.16-10.82-8.66-8.66c0,0,4.33-6.49,10.82-4.33c0,0-2.16-12.99,12.99-12.99c0,0,4.33-17.32,32.47-10.82
				c28.14,6.49,41.13,4.33,45.46-4.33c0,0,4.33,6.49,0,12.99c0,0,8.66,0,8.66-8.66c0,0,8.66,19.48-4.33,30.31
				c-12.99,10.82-14.88,10.55-36.8,8.66s-25.98,2.16-25.98,2.16L190.73,195.91z"/>
		</g>
		<g>
			<path class="st8" d="M195.34,154.48c0,0,4.05-38.67,38.68-27.85l5.15-0.69c0,0-22.47-12.3-37.63,0.69s-15.15,28.14-15.15,28.14
				L195.34,154.48z"/>
			<path class="st8" d="M249.18,189.42c2.16,0,8.66-7.27,8.66-16.24c0-5.02-1.21-9.51-3.12-12.49c-0.58,0.28-1.88,0.92-5.24,1.28
				C249.48,161.97,251.35,176.43,249.18,189.42z"/>
			<path class="st8" d="M224.79,213.62h-5.11c-0.87,0-1.65,0.34-2.26,0.88c-10.63-2-17.92-7.98-21.67-17.77
				c-0.15-0.38-0.28-0.77-0.41-1.15c8.15-1.78,13.71-11.63,12.62-22.88c-1.16-11.9-9.33-20.85-18.26-19.98
				c-8.93,0.87-15.22,11.22-14.07,23.12c1.07,11.01,8.15,19.47,16.27,19.99c2.79,8.73,9.29,18.9,24.44,21.92
				c0.33,1.53,1.7,2.69,3.33,2.69h5.11c1.87,0,3.41-1.53,3.41-3.41C228.2,215.15,226.67,213.62,224.79,213.62z"/>
		</g>
	</g>
	<g>
		<g>
			
				<linearGradient id="SVGID_00000166649953077123226310000010629838826794124438_" gradientUnits="userSpaceOnUse" x1="225.2308" y1="197.7418" x2="383.3813" y2="298.0452">
				<stop  offset="0" style="stop-color:#46B5D1;stop-opacity:0"/>
				<stop  offset="1" style="stop-color:#46B5D1"/>
			</linearGradient>
			<polygon style="fill:url(#SVGID_00000166649953077123226310000010629838826794124438_);" points="485.48,215.32 272.5,119.91 
				141.31,291.99 296.8,365.85 			"/>
		</g>
		<g>
			<path class="st14" d="M301.14,392.93v-2.16l31.93-2.36c0,0,9.21,0.19,13.54-6.3h19.48v-12.99h49.79v12.99h17.32
				c0,0,8.66,0,8.66,10.82H301.14z"/>
			<polygon class="st7" points="374.21,369.11 374.21,392.93 365.91,392.93 366.09,369.11 			"/>
			<path class="st7" d="M346.6,382.1v10.82h-45.46v-2.16c0,0,23.81-2.16,32.47-2.16C344.44,386.43,346.6,382.1,346.6,382.1z"/>
			<path class="st14" d="M305.47,369.11h179.69c0,0,8.66,0,8.66-10.82c0-10.82,0-129.9,0-129.9s2.16-12.99-8.66-12.99
				s-179.69,0-179.69,0s-10.82,0-10.82,8.66s0,136.39,0,136.39S294.64,369.11,305.47,369.11z"/>
			<path class="st7" d="M305.47,360.45c0,0,0-127.73,0-136.39s10.82-8.66,10.82-8.66c-6.81,0-10.82,0-10.82,0s-10.82,0-10.82,8.66
				s0,136.39,0,136.39s0,8.66,10.82,8.66h10.82C305.47,369.11,305.47,360.45,305.47,360.45z"/>
		</g>
	</g>
</g>
</svg>
