<?xml version="1.0" encoding="utf-8"?>
<!-- Generator: Adobe Illustrator 28.2.0, SVG Export Plug-In . SVG Version: 6.00 Build 0)  -->
<svg version="1.1" id="Ebene_1" xmlns="http://www.w3.org/2000/svg" xmlns:xlink="http://www.w3.org/1999/xlink" x="0px" y="0px"
	 viewBox="0 0 1920 1920" style="enable-background:new 0 0 1920 1920;" xml:space="preserve">
<style type="text/css">
	.st0{fill:#FFFFFF;}
</style>
<g>
	<path class="st0" d="M1263.61,1195.05c13.54-51.81,27.11-103.61,40.62-155.42c15.08-57.85,29.74-115.8,45.42-173.49
		c3.51-12.91,1.46-20.9-9.73-28.82c-45.72-32.37-90.14-66.61-136.37-98.23c-149.75-102.44-337.98-100.18-485.43,5.08
		c-42.52,30.35-84.28,61.77-127.02,91.8c-12.55,8.82-15.29,17.3-11.32,32.28c28.34,106.77,55.65,213.81,83.26,320.77
		c0.73,2.84,1.16,5.76-1.93,10.75c-18.5-29.34-37.25-58.53-55.46-88.05c-47.3-76.67-93.76-153.87-141.85-230.04
		c-17.71-28.04-19.29-54-3.37-83.02c31.99-58.33,51.08-120.78,60.47-186.86c2.82-19.85,13.17-40.61,25.52-56.79
		c44.69-58.55,101.48-104.63,165.49-139.85c69.5-38.24,141.75-71.53,213.1-106.36c24.3-11.86,49.7-11.92,74.97-1.82
		c105.92,42.3,207.61,92.82,297.09,164.2c33.46,26.69,63.14,58.83,90.99,91.52c11.88,13.95,18.3,35.14,20.92,53.91
		c9.22,66.11,29.03,128.29,61.61,186.41c12.94,23.08,14.57,45.5,0.28,68.65c-65.61,106.29-131.03,212.7-196.58,319.02
		c-1.48,2.4-3.81,4.27-5.74,6.39C1266.9,1196.4,1265.25,1195.73,1263.61,1195.05z"/>
	<path class="st0" d="M693.01,1362.3c109.18,84,218.37,168.01,327.55,252.01c-131.99-52.72-248.8-130.82-363.05-213.29
		c-1.73,2.09-3.47,4.19-5.2,6.28c54.16,56.97,108.31,113.95,154.91,162.97c-33.21-12.33-73.64-38.29-111.97-67.13
		c-38.51-28.98-75.11-60.49-116.32-89.48c14.81,31.95,29.61,63.9,46.17,99.63c-7.3-2.56-9.73-2.73-11.18-4.01
		c-91.19-80.66-175.36-167.24-231.19-277.3c-7.84-15.45-13.43-32.06-19.89-48.2c-4.32-10.79-1.02-17.42,10.87-19.47
		c43.23-7.45,86.34-15.65,129.73-21.97c7.39-1.08,17.52,3.83,23.7,9.12c180.81,154.58,376.37,287.66,585.58,400.59
		c36.53,19.72,75.59,34.75,113.49,51.93c7.88,3.57,15.8,7.03,23.71,10.54c-0.39,1.91-0.77,3.82-1.16,5.72
		c-15.53,0-31.06,0.3-46.58-0.05c-94.54-2.13-178.58-32.08-254.95-88.82c-78.96-58.66-161.15-112.97-241.97-169.11
		c-2.76-1.92-6.12-2.99-9.19-4.46C695.03,1359.3,694.02,1360.8,693.01,1362.3z"/>
	<path class="st0" d="M1227.02,1515.38c43.38-50,86.76-100,130.14-150c-0.89-1.1-1.78-2.2-2.67-3.3
		c-4.86,3.69-10.03,7.04-14.55,11.11c-50.09,45.1-100.46,89.89-149.82,135.77c-12.59,11.7-22.64,13.06-37.88,5.36
		c-41.21-20.84-83.31-39.89-124.99-59.81c-6.5-3.11-12.61-7.03-22.34-12.51c19.47-14.11,35.53-26.22,52.05-37.66
		c122.05-84.46,244.01-169.05,366.65-252.64c9.23-6.29,24.38-9.06,35.34-6.73c39.19,8.31,77.8,19.4,116.54,29.76
		c7.01,1.87,13.61,5.25,24.27,9.47c-115.19,123.64-242.31,228.43-367.4,335.41C1230.59,1518.2,1228.8,1516.79,1227.02,1515.38z"/>
	<path class="st0" d="M738.66,1146c68.3,43.5,132.13,84.15,195.96,124.81c-0.87,1.84-1.74,3.68-2.62,5.52
		c-22.9-6.34-45.79-12.68-68.69-19.02c-0.92,1.43-1.83,2.87-2.75,4.3c9.63,7.24,19.04,14.78,28.93,21.65
		c20.52,14.25,40.98,28.66,62.2,41.81c5.42,3.36,15.69,5.53,20.2,2.68c31.1-19.68,61.27-40.84,91.74-61.52
		c-0.89-2.1-1.77-4.2-2.66-6.3c-20.21,5.27-40.42,10.53-60.64,15.8c-0.92-1.67-1.84-3.34-2.77-5.02
		c62.55-40.61,125.09-81.23,191.95-124.64c7.62,37.17,14.77,69.33,20.21,101.77c0.72,4.29-6.26,11.54-11.34,14.87
		c-73.52,48.04-147.15,95.94-221.42,142.8c-6.31,3.98-19.58,3.8-25.97-0.23c-74.28-46.87-147.98-94.65-221.35-142.92
		c-5.67-3.73-11.76-13.58-10.8-19.47C723.77,1212.48,730.94,1182.46,738.66,1146z"/>
	<path class="st0" d="M1686.58,1045.44c42.18,45.77,72.66,97.21,76.91,163.04c-10.15-10.81-19.92-22.01-30.52-32.35
		c-39.39-38.42-89.12-50.11-141.6-51.08c-70.35-1.31-128.6-29.19-180.33-74.74c-11.41-10.05-13.71-17.49-3.49-29.82
		c13.44-16.21,25.06-33.92,38.57-52.51c6.35,3.7,12.23,6.69,17.65,10.37c31.38,21.3,65.7,29.28,103.43,24.78
		c30.02-3.58,60.15-6.71,90.33-8.4c68.41-3.85,126.02,22.68,178.34,63c-0.46,2.07-0.92,4.14-1.37,6.2
		c-48.2-8.1-96.39-16.2-144.59-24.3C1688.8,1041.57,1687.69,1043.5,1686.58,1045.44z"/>
	<path class="st0" d="M158.21,1206.38c12.03-63.18,39.85-116.14,84.91-160.51c-1.22-2.08-2.45-4.16-3.67-6.25
		c-48.37,8.12-96.74,16.24-145.11,24.36c-0.74-1.32-1.48-2.64-2.22-3.97c4.61-4.1,8.93-8.61,13.89-12.25
		c62.36-45.8,131.89-61.28,208.16-50.1c24.62,3.61,50.36,9.39,74.25,5.65c31.93-5.01,62.56-18.32,98.23-29.47
		c10.8,14.89,26.32,35.06,39.97,56.43c2.09,3.27-2.78,13.92-7.28,18.02c-47.67,43.38-101.97,74.38-167.89,75.62
		c-73.11,1.38-137.08,20.83-185.39,78.91C164.84,1204.28,162.27,1204.6,158.21,1206.38z"/>
	<path class="st0" d="M1580.44,800.99c32.33,28.29,63.16,54.67,92.94,82.19c3.18,2.94,2.91,14.61-0.29,18.62
		c-15.52,19.45-32.28,37.96-49.35,56.1c-3.46,3.67-10.21,6.15-15.35,6c-25.17-0.74-50.34-2.15-75.45-4.11
		c-18.55-1.45-37.25-2.91-55.38-6.74c-8.85-1.87-16.83-9.21-7.64-20.21C1506.15,889.51,1542.47,846.26,1580.44,800.99z"/>
	<path class="st0" d="M457.96,941.58c-20.42,18.96-41.59,19.55-63.93,19.29c-27.4-0.31-54.82,2.52-82.24,2.87
		c-5.66,0.07-12.82-3.39-16.81-7.59c-16.11-16.94-31.79-34.38-46.39-52.63c-3.64-4.54-5.93-16.33-3.28-18.79
		c30.28-28.04,61.64-54.91,94.48-83.63C380,848.91,418.18,894.3,457.96,941.58z"/>
	<path class="st0" d="M273.88,759.66c-24.66,21.22-44.44,38.24-66.49,57.21c-26.68-35.63-51.98-69.22-77.04-102.99
		c-13.02-17.55-25.05-33.61-50.1-38.03c-24.42-4.31-38.63-34.51-33.59-59.3c5.34-26.24,26.61-43.66,53.21-43.57
		c26.49,0.09,50.25,18.34,51.26,44.6c0.78,20.46,9.85,33.31,23.45,46.14C206.92,694.22,238.57,725.45,273.88,759.66z M129.42,631.85
		c-0.05-3.64-0.09-7.27-0.14-10.91c-4.54-22.41-27.35-19.64-29.91-19.79c-15.32-0.89-26.18,8.73-26.3,24.59
		c-0.13,16.55,9.83,29.27,26.81,26.21C110.58,650.02,125.85,647.38,129.42,631.85z M237.15,759.41c-2.95-3.43-5.89-6.87-8.84-10.3
		c-8.64,8.01-17.28,16.02-25.91,24.04c2.49,2.85,4.99,5.71,7.48,8.56C218.97,774.27,228.06,766.84,237.15,759.41z"/>
	<path class="st0" d="M1712.58,816.69c-19.85-17.11-36.91-31.86-54.02-46.55c-10.63-9.14-3.56-15.59,3.16-22.32
		c30.48-30.52,61.38-60.64,90.97-92.01c7-7.42,12.3-18.77,13.52-28.9c3.87-32.01,24.1-53.57,53.69-53.93
		c27.13-0.33,50.27,19.23,53.91,45.58c3.99,28.87-14.64,52.88-44.77,61.44c-9.91,2.82-20.28,10-26.69,18.14
		C1772.46,736.1,1743.88,775.1,1712.58,816.69z M1813.01,653.42c24.27-1.39,32.96-10.45,33.41-26.43
		c0.47-16.36-8.73-25.42-24.71-26.61c-14.98-1.12-24.68,12.45-26.48,26.78C1793.85,638.19,1801.34,654.36,1813.01,653.42z
		 M1711.22,781.82c2.47-3.06,4.93-6.12,7.4-9.18c-9.41-7.66-18.82-15.33-28.24-22.99c-2.53,3.14-5.06,6.27-7.59,9.41
		C1692.27,766.65,1701.75,774.23,1711.22,781.82z M1730.48,756.78c2.52-2.89,5.05-5.77,7.57-8.66
		c-8.16-7.23-16.31-14.46-24.47-21.69c-2.61,2.98-5.22,5.96-7.83,8.94C1713.99,742.51,1722.24,749.65,1730.48,756.78z"/>
	<path class="st0" d="M199.81,900.04c-6.32-6.67-11.19-12.28-16.57-17.37c-10.3-9.76-7.91-17.1,2.31-25.79
		c43.74-37.17,87.19-74.68,130.17-112.7c10.88-9.63,18.18-7.78,25.81,2.8c5.79,8.02,17.68,14.83,4.61,26.16
		C297.77,815.08,249.39,857.04,199.81,900.04z"/>
	<path class="st0" d="M1013.71,907.42c51.28-32.59,98.52-63.06,146.28-92.71c17.4-10.81,36.61-15.94,60.3-10.84
		c-3.33,4.63-4.43,7.97-6.47,8.71c-22.53,8.14-33.17,21.27-29.54,47.64c3.1,22.48-13.21,37.89-36.01,41.5
		c-1.49,0.24-3.01,0.57-4.5,0.48c-35.64-2.05-71.64-12.25-106.17,7.29C1032.5,912.37,1023.58,908.47,1013.71,907.42z"/>
	<path class="st0" d="M913,906.14c-18.8,7.87-35.03,1.38-52.24-4.97c-10.24-3.78-22.41-3.39-33.66-3.1
		c-14.99,0.39-30.07,4.41-44.88,3.43c-24.27-1.6-41.3-18.67-37.6-42.18c4.12-26.18-7.04-38-28.44-46.04
		c-1.92-0.72-3.36-2.83-4.89-4.43c-0.45-0.47-0.44-1.4-1.01-3.48c18.26-8.79,35.61-2.59,51.21,5.63
		c20.68,10.9,39.92,24.54,59.74,37.07C851.04,866.89,880.83,885.77,913,906.14z"/>
	<path class="st0" d="M1718.53,898.41c-48.22-41.86-95.45-83.21-143.15-124.02c-12.56-10.75-4.79-17.8,2.16-26.27
		c7.39-9.01,13.73-15.55,25.71-4.99c43.72,38.53,88.19,76.22,132,114.66C1749.52,870.31,1746.73,876.99,1718.53,898.41z"/>
	<g>
		<path class="st0" d="M862.1,1006.87c-7.65,12.24-11.44,27.7-11.44,46.52c0,18.69,3.79,34.94,11.44,48.91
			c7.75,14.15,17.54,22.38,29.45,24.58c0.08,0.01,0.17,0.03,0.25,0.04l44.14,7.68v-83.53l-42.64-4.58v23.6l25.23,3.2l2.09,3.36
			v28.05l-2.09,2.77l-26.73-4.13c-7.84-1.21-14.34-6.5-19.54-15.81c-5.16-9.23-7.72-20.08-7.72-32.62c0-12.54,2.52-22.8,7.6-30.82
			c5.12-8.1,11.54-11.93,19.29-11.45l44.51,3.55v-24.43l-44.39-2.67C879.63,988.5,869.85,994.47,862.1,1006.87z"/>
		<polygon class="st0" points="966.6,1017.96 1002.68,1015.09 1004.77,1017.8 1004.77,1131.38 1019.72,1128.79 1019.72,1016.58 
			1021.75,1013.57 1054.84,1010.94 1054.84,987.64 966.6,992.93 		"/>
		<path class="st0" d="M1266.69,892.71c-55.69,28.75-113.22,45.35-177.38,47.5c-90.15,3.01-179.87,2.75-269.89-1.76
			c-43.91-2.2-85.08-9.43-123.82-30.96c-18.53-10.3-38.93-17.25-59.84-26.3c-0.98,6.88-1.96,9.21-1.5,11.2
			c12.14,52.3,23.87,104.71,37.25,156.7c2.1,8.18,10.45,16.46,18.08,21.24c85.24,53.52,171.15,105.99,256.24,159.75
			c14.57,9.21,24.8,8.01,38.69-0.74c84.53-53.24,169.82-105.27,254.21-158.71c9.05-5.73,17.42-17.09,20.17-27.42
			c12.42-46.76,22.78-94.07,33.64-141.23c1.27-5.5,1.05-11.35,1.82-20.65C1282.99,885.96,1274.5,888.68,1266.69,892.71z
			 M939.96,1019.65l-1.88,2.98l-46.53-3.94c-6.85-0.45-12.46,2.87-16.88,9.89c-4.38,6.98-6.56,15.88-6.56,26.74
			c0,10.87,2.22,20.28,6.68,28.3c4.5,8.08,10.15,12.64,17,13.67l24.91,3.72v-21.8l-25.16-3.32l-1.99-3.28v-29.56l1.99-2.81
			l46.53,4.77l1.88,3.34v90.08l-1.88,2.81l-46.28-8.28c-0.08-0.02-0.15-0.03-0.19-0.03c-0.04-0.01-0.11-0.02-0.19-0.03
			c-8.49-1.65-16.11-6.29-22.89-13.88c-6.71-7.5-11.94-17.07-15.72-28.72c-3.76-11.57-5.63-23.99-5.63-37.32
			c0-13.45,1.87-25.5,5.63-36.2c3.78-10.76,9.01-19.14,15.72-25.13c6.79-6.06,14.41-8.95,22.89-8.62l46.66,2.58l1.88,3.25V1019.65z
			 M1058.43,1013.02l-2.03,3.72l-32.87,2.78v111.26l-2.15,3.83l-18.3,3.26l-2.23-3.11v-113.32l-35.92,3.03l-2.51-3.62v-30.21
			l2.51-3.97l91.47-5.03l2.03,3.43V1013.02z"/>
	</g>
</g>
</svg>
